<?xml version="1.0" encoding="UTF-8"?>
<svg xmlns="http://www.w3.org/2000/svg" xmlns:xlink="http://www.w3.org/1999/xlink" width="7pt" height="7pt" viewBox="0 0 7 7" version="1.1">
<g id="surface1">
<path style=" stroke:none;fill-rule:evenodd;fill:rgb(63.921569%,63.921569%,63.921569%);fill-opacity:1;" d="M 7 3.28125 C 6.890625 1.519531 5.480469 0.113281 3.71875 0.0078125 L 3.71875 0 L 3.28125 0 L 3.28125 0.0078125 C 1.519531 0.117188 0.117188 1.519531 0.0078125 3.28125 L 0 3.28125 L 0 3.71875 L 0.0078125 3.71875 C 0.113281 5.480469 1.519531 6.890625 3.28125 7 L 3.71875 7 C 5.484375 6.894531 6.894531 5.484375 7 3.71875 Z M 5.472656 3.28125 C 5.460938 2.894531 5.410156 2.507812 5.324219 2.128906 C 5.582031 2.050781 5.832031 1.945312 6.066406 1.816406 C 6.355469 2.253906 6.527344 2.757812 6.5625 3.28125 Z M 4.777344 1.824219 C 4.707031 1.621094 4.621094 1.425781 4.519531 1.238281 L 4.511719 1.238281 C 4.28125 0.835938 4.003906 0.570312 3.726562 0.476562 L 3.726562 1.957031 C 4.078125 1.945312 4.429688 1.902344 4.777344 1.824219 Z M 3.28125 0.476562 L 3.28125 1.960938 C 2.929688 1.949219 2.578125 1.90625 2.230469 1.828125 C 2.300781 1.625 2.386719 1.429688 2.488281 1.242188 C 2.71875 0.835938 2.996094 0.570312 3.28125 0.476562 Z M 3.28125 3.28125 L 3.28125 2.398438 C 2.882812 2.386719 2.488281 2.335938 2.101562 2.246094 C 2.023438 2.585938 1.980469 2.933594 1.96875 3.28125 Z M 3.28125 3.71875 L 3.28125 4.621094 C 2.886719 4.632812 2.496094 4.683594 2.113281 4.769531 C 2.03125 4.421875 1.980469 4.070312 1.96875 3.714844 Z M 3.28125 6.515625 L 3.28125 5.058594 C 2.929688 5.070312 2.582031 5.113281 2.238281 5.1875 C 2.304688 5.382812 2.390625 5.574219 2.488281 5.753906 C 2.71875 6.160156 2.996094 6.425781 3.28125 6.515625 Z M 3.71875 6.515625 L 3.71875 5.058594 C 4.070312 5.070312 4.417969 5.117188 4.761719 5.191406 C 4.695312 5.386719 4.609375 5.578125 4.511719 5.757812 C 4.28125 6.164062 4.003906 6.429688 3.71875 6.523438 Z M 3.71875 3.71875 L 3.71875 4.621094 C 4.113281 4.636719 4.503906 4.6875 4.886719 4.773438 C 4.96875 4.425781 5.019531 4.074219 5.03125 3.71875 Z M 3.71875 3.28125 L 3.71875 2.398438 C 4.113281 2.386719 4.503906 2.339844 4.886719 2.253906 C 4.964844 2.59375 5.007812 2.9375 5.019531 3.285156 Z M 5.199219 1.710938 C 5.398438 1.644531 5.59375 1.5625 5.78125 1.464844 C 5.472656 1.117188 5.089844 0.84375 4.660156 0.664062 C 4.898438 0.980469 5.078125 1.335938 5.199219 1.710938 Z M 2.347656 0.664062 C 2.109375 0.980469 1.929688 1.335938 1.808594 1.710938 C 1.605469 1.644531 1.40625 1.5625 1.21875 1.464844 C 1.527344 1.117188 1.914062 0.84375 2.347656 0.664062 Z M 1.6875 2.128906 C 1.429688 2.050781 1.183594 1.945312 0.945312 1.816406 C 0.65625 2.253906 0.484375 2.757812 0.449219 3.28125 L 1.542969 3.28125 C 1.550781 2.894531 1.601562 2.507812 1.6875 2.128906 Z M 1.527344 3.71875 C 1.539062 4.113281 1.59375 4.503906 1.6875 4.886719 C 1.429688 4.964844 1.183594 5.070312 0.945312 5.199219 C 0.65625 4.757812 0.484375 4.246094 0.449219 3.71875 Z M 1.8125 5.308594 C 1.613281 5.371094 1.417969 5.453125 1.230469 5.550781 C 1.539062 5.890625 1.921875 6.15625 2.347656 6.328125 C 2.113281 6.019531 1.933594 5.675781 1.8125 5.308594 Z M 4.652344 6.335938 C 4.886719 6.027344 5.066406 5.679688 5.1875 5.3125 C 5.386719 5.378906 5.582031 5.460938 5.769531 5.554688 C 5.460938 5.894531 5.078125 6.160156 4.652344 6.335938 Z M 5.308594 4.890625 C 5.5625 4.96875 5.808594 5.074219 6.042969 5.203125 C 6.339844 4.761719 6.515625 4.25 6.550781 3.722656 L 5.464844 3.722656 C 5.453125 4.117188 5.398438 4.507812 5.308594 4.890625 Z M 5.308594 4.890625 "/>
</g>
</svg>
